#Comment line ignore any data following # character 
#Hierarchical Translation and Rotation (.htr) file 
[Header]	
#Header keywords are followed by a single value 
FileType HTR		#Single word string
DataType HTRS		#Translation followed by rotation and scale data
FileVersion 1		#integer
NumSegments 64		#integer
NumFrames 3		#integer
DataFrameRate 30		#integer, data frame rate in this file
EulerRotationOrder ZYX
CalibrationUnits mm
RotationUnits Degrees
GlobalAxisofGravity Y
BoneLengthAxis Y
ScaleFactor 1.00
[SegmentNames&Hierarchy]
#CHILD	PARENT
Pinger_Root GLOBAL
Pelvis Pinger_Root
L_Hip Pelvis
R_Hip Pelvis
Rear_Leg01 Pelvis
Spine1 Pelvis
L_Leg01 L_Hip
L_Leg02 L_Leg01
L_Leg03 L_Leg02
L_Foot L_Leg03
L_Toe1_01 L_Foot
L_Toe2_01 L_Foot
L_Toe3_01 L_Foot
planeAlignerLeft L_Foot
L_Toe1_02 L_Toe1_01
L_Toe1_03 L_Toe1_02
L_Toe2_02 L_Toe2_01
L_Toe2_03 L_Toe2_02
L_Toe3_02 L_Toe3_01
L_Toe3_03 L_Toe3_02
planeLockWeightLeft planeAlignerLeft
R_Leg01 R_Hip
R_Leg02 R_Leg01
R_Leg03 R_Leg02
R_Foot R_Leg03
planeAlignerRight R_Foot
R_Toe1_01 R_Foot
R_Toe2_01 R_Foot
R_Toe3_01 R_Foot
planeLockWeightRight planeAlignerRight
R_Toe1_02 R_Toe1_01
R_Toe1_03 R_Toe1_02
R_Toe2_02 R_Toe2_01
R_Toe2_03 R_Toe2_02
R_Toe3_02 R_Toe3_01
R_Toe3_03 R_Toe3_02
Rear_Leg02 Rear_Leg01
Rear_Leg03 Rear_Leg02
Rear_Leg04 Rear_Leg03
Rear_Foot Rear_Leg04
planeAlignerCenter Rear_Foot
Rear_Toe1_01 Rear_Foot
Rear_Toe2_01 Rear_Foot
Rear_Toe3_01 Rear_Foot
planeLockWeightCenter planeAlignerCenter
Rear_Toe1_02 Rear_Toe1_01
Rear_Toe1_03 Rear_Toe1_02
Rear_Toe2_02 Rear_Toe2_01
Rear_Toe2_03 Rear_Toe2_02
Rear_Toe3_02 Rear_Toe3_01
Rear_Toe3_03 Rear_Toe3_02
Back_Bone Spine1
Head Spine1
Motor_Bone Back_Bone
Ping_Mechanism Back_Bone
BN_LookIK Head
bottomMouth Head
L_Mouth01 Head
L_mouthFront Head
mouthGun Head
R_Mouth01 Head
R_mouthFront Head
TopMouth Head
weapon_bone Head
[BasePosition]
#SegmentName Tx, Ty, Tz, Rx, Ry, Rz, BoneLength
Pinger_Root 0.000000 0.000000 0.000000 -90.000000 0.000000 0.000000 10.000000 
Pelvis 0.000000 0.000000 0.000000 0.000000 0.000000 0.000000 10.000000 
L_Hip 0.000000 0.000000 0.000000 0.000000 0.000000 0.000000 10.000000 
R_Hip 0.000000 0.000000 0.000000 0.000000 0.000000 0.000000 10.000000 
Rear_Leg01 0.000000 0.000000 0.000000 0.000000 0.000000 0.000000 10.000000 
Spine1 0.000000 0.000000 0.000000 0.000000 0.000000 0.000000 10.000000 
L_Leg01 0.000000 0.000000 0.000000 0.000000 0.000000 0.000000 10.000000 
L_Leg02 0.000000 0.000000 0.000000 0.000000 0.000000 0.000000 10.000000 
L_Leg03 0.000000 0.000000 0.000000 0.000000 0.000000 0.000000 10.000000 
L_Foot 0.000000 0.000000 0.000000 0.000000 0.000000 0.000000 10.000000 
L_Toe1_01 0.000000 0.000000 0.000000 0.000000 0.000000 0.000000 10.000000 
L_Toe2_01 0.000000 0.000000 0.000000 0.000000 0.000000 0.000000 10.000000 
L_Toe3_01 0.000000 0.000000 0.000000 0.000000 0.000000 0.000000 10.000000 
planeAlignerLeft 0.000000 0.000000 0.000000 0.000000 0.000000 0.000000 10.000000 
L_Toe1_02 0.000000 0.000000 0.000000 0.000000 0.000000 0.000000 10.000000 
L_Toe1_03 0.000000 0.000000 0.000000 0.000000 0.000000 0.000000 10.000000 
L_Toe2_02 0.000000 0.000000 0.000000 0.000000 0.000000 0.000000 10.000000 
L_Toe2_03 0.000000 0.000000 0.000000 0.000000 0.000000 0.000000 10.000000 
L_Toe3_02 0.000000 0.000000 0.000000 0.000000 0.000000 0.000000 10.000000 
L_Toe3_03 0.000000 0.000000 0.000000 0.000000 0.000000 0.000000 10.000000 
planeLockWeightLeft 0.000000 0.000000 0.000000 0.000000 0.000000 0.000000 10.000000 
R_Leg01 0.000000 0.000000 0.000000 0.000000 0.000000 0.000000 10.000000 
R_Leg02 0.000000 0.000000 0.000000 0.000000 0.000000 0.000000 10.000000 
R_Leg03 0.000000 0.000000 0.000000 0.000000 0.000000 0.000000 10.000000 
R_Foot 0.000000 0.000000 0.000000 0.000000 0.000000 0.000000 10.000000 
planeAlignerRight 0.000000 0.000000 0.000000 0.000000 0.000000 0.000000 10.000000 
R_Toe1_01 0.000000 0.000000 0.000000 0.000000 0.000000 0.000000 10.000000 
R_Toe2_01 0.000000 0.000000 0.000000 0.000000 0.000000 0.000000 10.000000 
R_Toe3_01 0.000000 0.000000 0.000000 0.000000 0.000000 0.000000 10.000000 
planeLockWeightRight 0.000000 0.000000 0.000000 0.000000 0.000000 0.000000 10.000000 
R_Toe1_02 0.000000 0.000000 0.000000 0.000000 0.000000 0.000000 10.000000 
R_Toe1_03 0.000000 0.000000 0.000000 0.000000 0.000000 0.000000 10.000000 
R_Toe2_02 0.000000 0.000000 0.000000 0.000000 0.000000 0.000000 10.000000 
R_Toe2_03 0.000000 0.000000 0.000000 0.000000 0.000000 0.000000 10.000000 
R_Toe3_02 0.000000 0.000000 0.000000 0.000000 0.000000 0.000000 10.000000 
R_Toe3_03 0.000000 0.000000 0.000000 0.000000 0.000000 0.000000 10.000000 
Rear_Leg02 0.000000 0.000000 0.000000 0.000000 0.000000 0.000000 10.000000 
Rear_Leg03 0.000000 0.000000 0.000000 0.000000 0.000000 0.000000 10.000000 
Rear_Leg04 0.000000 0.000000 0.000000 0.000000 0.000000 0.000000 10.000000 
Rear_Foot 0.000000 0.000000 0.000000 0.000000 0.000000 0.000000 10.000000 
planeAlignerCenter 0.000000 0.000000 0.000000 0.000000 0.000000 0.000000 10.000000 
Rear_Toe1_01 0.000000 0.000000 0.000000 0.000000 0.000000 0.000000 10.000000 
Rear_Toe2_01 0.000000 0.000000 0.000000 0.000000 0.000000 0.000000 10.000000 
Rear_Toe3_01 0.000000 0.000000 0.000000 0.000000 0.000000 0.000000 10.000000 
planeLockWeightCenter 0.000000 0.000000 0.000000 0.000000 0.000000 0.000000 10.000000 
Rear_Toe1_02 0.000000 0.000000 0.000000 0.000000 0.000000 0.000000 10.000000 
Rear_Toe1_03 0.000000 0.000000 0.000000 0.000000 0.000000 0.000000 10.000000 
Rear_Toe2_02 0.000000 0.000000 0.000000 0.000000 0.000000 0.000000 10.000000 
Rear_Toe2_03 0.000000 0.000000 0.000000 0.000000 0.000000 0.000000 10.000000 
Rear_Toe3_02 0.000000 0.000000 0.000000 0.000000 0.000000 0.000000 10.000000 
Rear_Toe3_03 0.000000 0.000000 0.000000 0.000000 0.000000 0.000000 10.000000 
Back_Bone 0.000000 0.000000 0.000000 0.000000 0.000000 0.000000 10.000000 
Head 0.000000 0.000000 0.000000 0.000000 0.000000 0.000000 10.000000 
Motor_Bone 0.000000 0.000000 0.000000 0.000000 0.000000 0.000000 10.000000 
Ping_Mechanism 0.000000 0.000000 0.000000 0.000000 0.000000 0.000000 10.000000 
BN_LookIK 0.000000 0.000000 0.000000 0.000000 0.000000 0.000000 10.000000 
bottomMouth 0.000000 0.000000 0.000000 0.000000 0.000000 0.000000 10.000000 
L_Mouth01 0.000000 0.000000 0.000000 0.000000 0.000000 0.000000 10.000000 
L_mouthFront 0.000000 0.000000 0.000000 0.000000 0.000000 0.000000 10.000000 
mouthGun 0.000000 0.000000 0.000000 0.000000 0.000000 0.000000 10.000000 
R_Mouth01 0.000000 0.000000 0.000000 0.000000 0.000000 0.000000 10.000000 
R_mouthFront 0.000000 0.000000 0.000000 0.000000 0.000000 0.000000 10.000000 
TopMouth 0.000000 0.000000 0.000000 0.000000 0.000000 0.000000 10.000000 
weapon_bone 0.000000 0.000000 0.000000 0.000000 0.000000 0.000000 10.000000 
#Beginning of Data. Separated by tabs
#Fr	Tx	Ty	Tz	Rx	Ry	Rz	SF
[Pinger_Root]
18 0.000000 0.000000 0.000000 -0.000075 -0.000000 -0.000020 0.000000
19 0.000000 0.000000 0.000000 -0.000075 -0.000000 -0.000020 0.000000
20 0.000000 0.000000 0.000000 -0.000075 -0.000000 -0.000020 0.000000
[Pelvis]
18 48.707233 205.104813 2747.854492 -104.417770 -81.119507 95.908524 2755.928955
19 49.919350 146.076523 2763.215088 -104.200470 -81.472137 96.403412 2767.523682
20 50.352245 94.994026 2755.695068 -105.439178 -82.348091 97.955460 2757.791504
[L_Hip]
18 5.766392 125.831482 872.656799 -122.901390 -71.017067 12.269466 881.701050
19 5.766392 125.831482 872.656799 -117.998749 -72.155342 8.326908 881.701050
20 5.766392 125.831482 872.656799 -114.058395 -73.452522 6.287065 881.701050
[R_Hip]
18 5.765438 125.836372 -872.654907 -176.915344 69.250854 -95.642761 881.699829
19 5.765438 125.836372 -872.654907 -176.915329 69.250854 -95.642754 881.699829
20 5.765438 125.836372 -872.654907 -176.915329 69.250870 -95.642792 881.699829
[Rear_Leg01]
18 -192.298416 -925.602966 -0.001907 -176.907990 7.292309 -127.974731 945.367432
19 -192.298416 -925.602966 -0.001907 -176.360016 5.787755 -126.052673 945.367432
20 -192.298416 -925.602966 -0.001907 -175.963531 4.581542 -123.454262 945.367432
[Spine1]
18 290.604584 5.007505 0.000477 8.532989 0.447985 14.580583 290.647736
19 290.604584 5.007505 0.000477 7.848017 0.585709 15.091041 290.647736
20 290.604584 5.007505 0.000477 7.564052 0.603420 16.389135 290.647736
[L_Leg01]
18 761.932007 -0.002384 -0.069261 83.411667 -25.963026 -65.559875 761.932068
19 761.932007 -0.002384 -0.069261 86.615891 -27.632435 -66.861488 761.932068
20 761.932007 -0.002384 -0.069261 88.091621 -31.540430 -65.603638 761.932068
[L_Leg02]
18 1441.140503 -0.000954 -0.000715 10.896676 3.682512 -111.370850 1441.140503
19 1441.140503 -0.000954 -0.000715 10.323594 2.848773 -105.615601 1441.140503
20 1441.140503 -0.000954 -0.000715 11.403134 2.751809 -105.416397 1441.140503
[L_Leg03]
18 1686.963989 -0.000715 -0.000954 -0.114947 0.070421 141.070587 1686.963989
19 1686.963989 -0.000715 -0.000954 -0.106919 0.063469 138.465988 1686.963989
20 1686.963989 -0.000715 -0.000954 -0.101354 0.059229 136.912201 1686.963989
[L_Foot]
18 3041.570068 -30.715107 11.297464 -28.723532 32.955399 17.924507 3041.746094
19 3041.570068 -30.715107 11.297464 -30.342089 33.769688 14.302438 3041.746094
20 3041.570068 -30.715107 11.297464 -31.115248 34.542229 13.280446 3041.746094
[L_Toe1_01]
18 -188.216690 -224.732346 -21.137953 73.867279 -5.782817 -173.963348 293.899567
19 -188.216690 -224.732346 -21.137953 73.767502 -5.680886 -173.697662 293.899567
20 -188.216690 -224.732346 -21.137953 73.668243 -5.578496 -173.432205 293.899567
[L_Toe2_01]
18 200.746536 -219.926590 148.838394 -73.422516 -15.974563 -53.951164 332.896027
19 200.746536 -219.926590 148.838394 -73.353859 -15.996158 -53.993542 332.896027
20 200.746536 -219.926590 148.838394 -73.285194 -16.017704 -54.035934 332.896027
[L_Toe3_01]
18 188.832520 -219.859131 -191.078659 -124.401962 44.645149 -58.959259 347.140900
19 188.832520 -219.859131 -191.078659 -124.601807 44.929737 -59.073925 347.140900
20 188.832520 -219.859131 -191.078659 -124.803444 45.214046 -59.190571 347.140900
[planeAlignerLeft]
18 -16.508171 -487.116730 -92.519371 -50.656990 -82.346375 -50.364700 496.099854
19 -19.997850 -486.668427 -93.548729 -50.407169 -82.278847 -50.610168 495.981293
20 -23.487541 -486.220154 -94.578094 -50.161629 -82.211067 -50.851166 495.889832
[L_Toe1_02]
18 413.761139 0.000477 0.000000 0.001387 -25.572605 0.001387 413.761139
19 413.761139 0.000477 0.000000 0.001388 -25.468121 0.001388 413.761139
20 413.761139 0.000477 0.000000 0.001389 -25.363630 0.001389 413.761139
[L_Toe1_03]
18 464.317322 0.000358 -0.000089 0.003090 45.353851 0.003090 464.317322
19 464.317322 0.000358 -0.000089 0.003019 44.249218 0.003019 464.317322
20 464.317322 0.000358 -0.000089 0.002948 43.064419 0.002948 464.317322
[L_Toe2_02]
18 342.235809 -0.000477 0.000238 0.001182 -76.282600 0.001182 342.235809
19 342.235809 -0.000477 0.000238 0.001182 -76.386894 0.001182 342.235809
20 342.235809 -0.000477 0.000238 0.001182 -76.491150 0.001182 342.235809
[L_Toe2_03]
18 420.210846 -0.000715 0.000000 -179.992645 82.762207 -179.989151 420.210846
19 420.210846 -0.000715 0.000000 -179.993164 82.330750 -179.989655 420.210846
20 420.210846 -0.000715 0.000000 -179.993607 81.899376 -179.990112 420.210846
[L_Toe3_02]
18 329.270111 0.000954 0.000000 0.001176 -82.658371 0.001176 329.270111
19 329.270111 0.000954 0.000000 0.001176 -82.679588 0.001176 329.270111
20 329.270111 0.000954 0.000000 0.001176 -82.700714 0.001176 329.270111
[L_Toe3_03]
18 439.137451 -0.001907 0.000954 179.998825 68.275581 -179.996841 439.137451
19 439.137451 -0.001907 0.000954 179.997589 68.100113 -179.997665 439.137451
20 439.137451 -0.001907 0.000954 179.996368 67.924606 -179.998489 439.137451
[planeLockWeightLeft]
18 999.998779 0.097999 0.076017 -0.011826 -0.004376 0.005620 999.998840
19 999.998779 0.098002 0.076017 -0.011826 -0.004376 0.005620 999.998840
20 999.998779 0.098004 0.076016 -0.011826 -0.004376 0.005620 999.998840
[R_Leg01]
18 761.455627 -0.001907 -0.000358 49.181229 -56.287800 96.954865 761.455688
19 761.455627 -0.001907 -0.000358 50.470901 -55.733086 94.931953 761.455688
20 761.455627 -0.001907 -0.000358 51.826744 -55.716381 93.079674 761.455688
[R_Leg02]
18 1441.140625 0.000000 -0.000238 -1.683121 -0.864364 -130.418472 1441.140625
19 1441.140625 0.000000 -0.000238 -2.315746 -1.079214 -127.288475 1441.140625
20 1441.140625 0.000000 -0.000238 -3.767277 -1.633842 -125.471107 1441.140625
[R_Leg03]
18 1686.963989 0.000954 0.001431 0.131496 -0.085494 145.828735 1686.963989
19 1686.963989 0.000954 0.001431 0.126018 -0.081141 144.844376 1686.963989
20 1686.963989 0.000954 0.001431 0.123374 -0.078820 144.181686 1686.963989
[R_Foot]
18 3041.560059 -30.531288 -11.204481 32.502628 -27.418346 23.274862 3041.734131
19 3041.560059 -30.531288 -11.204481 33.048599 -28.039576 21.697748 3041.734131
20 3041.560059 -30.531288 -11.204481 32.827412 -28.260563 20.720396 3041.734131
[planeAlignerRight]
18 -218.808884 -561.702271 -94.861008 -163.685623 -83.044891 61.068523 610.233826
19 -220.066376 -562.397766 -90.162827 -166.236389 -82.651001 63.624195 610.614258
20 -221.323853 -563.093384 -85.464638 -168.523590 -82.243950 65.916245 611.034058
[R_Toe1_01]
18 -188.383347 -224.864899 21.052242 100.482300 -2.265845 -172.195221 294.101532
19 -188.383347 -224.864899 21.052242 100.979912 -2.345693 -172.077255 294.101532
20 -188.383347 -224.864899 21.052242 101.477371 -2.426561 -171.959991 294.101532
[R_Toe2_01]
18 200.637817 -220.002121 -148.787384 -124.958794 14.921998 -63.612625 332.857574
19 200.637817 -220.002121 -148.787384 -125.175499 14.356774 -63.701706 332.857574
20 200.637817 -220.002121 -148.787384 -125.390762 13.791232 -63.788368 332.857574
[R_Toe3_01]
18 188.606735 -220.092957 191.126343 -66.501663 -35.812469 -61.524323 347.192566
19 188.606735 -220.092957 191.126343 -66.626587 -36.672092 -61.348911 347.192566
20 188.606735 -220.092957 191.126343 -66.700874 -37.204739 -61.235924 347.192566
[planeLockWeightRight]
18 999.999329 0.000000 0.076014 -0.011823 -0.004379 -0.000027 999.999329
19 999.999329 0.000000 0.076014 -0.011823 -0.004379 -0.000027 999.999329
20 999.999329 0.000000 0.076013 -0.011823 -0.004379 -0.000027 999.999329
[R_Toe1_02]
18 413.762085 0.000477 -0.000119 0.001385 -25.881006 0.001385 413.762085
19 413.762085 0.000477 -0.000119 0.001385 -25.853096 0.001385 413.762085
20 413.762085 0.000477 -0.000119 0.001385 -25.825191 0.001385 413.762085
[R_Toe1_03]
18 464.317810 0.000000 0.001088 0.003283 48.109627 0.003283 464.317810
19 464.317810 0.000000 0.001088 0.003245 47.596127 0.003245 464.317810
20 464.317810 0.000000 0.001088 0.003208 47.082623 0.003208 464.317810
[R_Toe2_02]
18 342.234741 -0.000954 0.000238 -0.002343 -75.219452 -0.002343 342.234741
19 342.234741 -0.000954 0.000238 -0.002342 -75.266281 -0.002342 342.234741
20 342.234741 -0.000954 0.000238 -0.002342 -75.313118 -0.002342 342.234741
[R_Toe2_03]
18 420.210846 0.000715 -0.000268 -179.981888 85.973091 -179.985397 420.210846
19 420.210846 0.000715 -0.000268 -179.982712 85.759613 -179.986206 420.210846
20 420.210846 0.000715 -0.000268 -179.982941 85.697983 -179.986435 420.210846
[R_Toe3_02]
18 329.270355 -0.000477 -0.000954 0.001176 -82.668564 0.001176 329.270355
19 329.270355 -0.000477 -0.000954 0.001176 -82.667892 0.001176 329.270355
20 329.270355 -0.000477 -0.000954 0.001176 -82.667274 0.001176 329.270355
[R_Toe3_03]
18 439.137939 0.000238 0.001431 -179.998734 68.233284 -179.995178 439.137939
19 439.137939 0.000238 0.001431 -179.998749 68.117409 -179.995193 439.137939
20 439.137939 0.000238 0.001431 -179.998779 68.001541 -179.995209 439.137939
[Rear_Leg02]
18 1162.777710 -0.029802 0.005960 -1.078052 -8.890833 -104.297646 1162.777710
19 1162.777710 -0.029802 0.005960 0.189323 -8.029541 -105.858955 1162.777710
20 1162.777710 -0.029802 0.005960 1.358025 -7.035364 -106.374077 1162.777710
[Rear_Leg03]
18 607.192505 -0.013351 -0.073195 0.006493 -0.002053 63.302105 607.192505
19 607.192505 -0.013351 -0.073195 0.006469 -0.002127 64.613976 607.192505
20 607.192505 -0.013351 -0.073195 0.007490 -0.002854 65.620041 607.192505
[Rear_Leg04]
18 995.874512 -0.020504 -0.011921 -0.040253 -0.015849 56.289680 995.874573
19 995.874512 -0.020504 -0.011921 -0.040597 -0.014945 58.851643 995.874573
20 995.874512 -0.020504 -0.011921 -0.040447 -0.015895 60.966602 995.874573
[Rear_Foot]
18 3096.176270 -0.067472 -0.041425 -82.696228 85.206825 130.844467 3096.176270
19 3096.176270 -0.067472 -0.041425 -74.573906 85.315498 138.025253 3096.176270
20 3096.176270 -0.067472 -0.041425 -66.235046 85.337807 145.422363 3096.176270
[planeAlignerCenter]
18 -8.677139 -168.560150 -668.784424 12.240772 -0.001473 179.998184 689.753906
19 -8.675652 -178.315399 -702.179077 12.240773 -0.001473 179.998184 724.518555
20 -8.675956 -179.652710 -697.950623 12.240773 -0.001473 179.998184 720.753357
[Rear_Toe1_01]
18 0.653352 83.966492 -371.173737 0.683636 31.270607 91.051689 380.553192
19 0.653352 83.966492 -371.173737 0.720928 33.665585 91.070427 380.553192
20 0.653352 83.966492 -371.173737 0.723424 33.329578 91.066978 380.553192
[Rear_Toe2_01]
18 178.200760 -294.826019 -362.060547 -7.976252 29.661030 -67.774895 499.765686
19 178.200760 -294.826019 -362.060547 -7.847669 31.153805 -67.989426 499.765686
20 178.200760 -294.826019 -362.060547 -7.876056 30.919191 -68.024986 499.765686
[Rear_Toe3_01]
18 -153.359680 -308.780914 -362.060852 3.614269 28.548803 -112.204529 499.952881
19 -153.359680 -308.780914 -362.060852 3.550321 29.831617 -111.994446 499.952881
20 -153.359680 -308.780914 -362.060852 3.564617 29.596531 -111.965775 499.952881
[planeLockWeightCenter]
18 1000.000000 0.000267 0.076255 -0.011814 -0.004373 -0.000015 1000.000000
19 1000.000000 0.000265 0.076255 -0.011814 -0.004373 -0.000015 1000.000000
20 1000.000000 0.000263 0.076254 -0.011814 -0.004373 -0.000015 1000.000000
[Rear_Toe1_02]
18 379.707825 0.194073 0.000477 -0.001869 -32.610161 0.000559 379.707855
19 379.707825 0.194073 0.000477 -0.002646 -32.819653 -0.002646 379.707855
20 379.707825 0.194073 0.000477 -0.002647 -32.752670 -0.002647 379.707855
[Rear_Toe1_03]
18 500.129700 0.165701 0.000119 -179.957962 88.365051 -179.961456 500.129761
19 500.129700 0.165701 0.000119 0.000000 89.528534 -0.003501 500.129761
20 500.129700 0.165701 0.000119 0.000000 89.853294 -0.003495 500.129761
[Rear_Toe2_02]
18 340.494507 0.000238 -0.000954 0.001196 -68.036758 0.001196 340.494507
19 340.494507 0.000238 -0.000954 0.001200 -65.990417 0.001200 340.494507
20 340.494507 0.000238 -0.000954 0.001200 -65.913773 0.001200 340.494507
[Rear_Toe2_03]
18 433.103577 0.000000 0.000238 0.005911 67.094643 0.005911 433.103546
19 433.103577 0.000000 0.000238 0.005244 64.134789 0.005244 433.103546
20 433.103577 0.000000 0.000238 0.005223 64.029755 0.005223 433.103546
[Rear_Toe3_02]
18 340.494141 -0.000358 -0.000477 0.007108 -63.746075 -0.008288 340.494171
19 340.494141 -0.000358 -0.000477 -0.002397 -61.453987 -0.002397 340.494171
20 340.494141 -0.000358 -0.000477 -0.002398 -61.350426 -0.002398 340.494171
[Rear_Toe3_03]
18 433.103577 0.001431 -0.000238 -0.000491 61.021076 -0.004103 433.103546
19 433.103577 0.001431 -0.000238 -0.000266 57.996033 -0.003904 433.103546
20 433.103577 0.001431 -0.000238 -0.000258 57.871655 -0.003896 433.103546
[Back_Bone]
18 1312.175781 -701.934692 0.000954 1.058223 -0.610008 -72.136833 1488.125488
19 1312.175781 -701.934692 0.000954 1.072794 -0.591668 -72.424606 1488.125488
20 1312.175781 -701.934692 0.000954 1.110605 -0.546920 -73.204918 1488.125488
[Head]
18 1406.159424 809.709290 0.001431 -4.348508 2.758250 10.397150 1622.625488
19 1406.159424 809.709290 0.001431 -4.272941 2.746227 10.016401 1622.625488
20 1406.159424 809.709290 0.001431 -4.072894 2.715515 9.008181 1622.625488
[Motor_Bone]
18 1158.364380 -417.834747 0.000477 -0.094050 0.078788 -112.422073 1231.419434
19 1158.364380 -417.834747 0.000477 -0.095810 0.075944 -110.915787 1231.419434
20 1158.364380 -417.834747 0.000477 -0.111741 0.061297 -112.106369 1231.419434
[Ping_Mechanism]
18 1251.580811 -459.303223 -4.199259 0.000103 -0.000053 82.120995 1333.203491
19 1250.097656 -458.272980 -4.396113 0.000103 -0.000053 82.120995 1331.456909
20 1246.389160 -455.652771 -4.918422 0.000103 -0.000053 82.120995 1327.075562
[BN_LookIK]
18 193.241119 1380.371704 -0.002861 0.000000 89.965736 -31.038179 1393.832153
19 193.241119 1380.371704 -0.002861 0.000000 89.965736 -31.038179 1393.832153
20 193.241119 1380.371704 -0.002861 0.000000 89.965736 -31.038179 1393.832153
[bottomMouth]
18 -435.092926 615.759399 -0.000954 -0.000022 0.000016 73.527184 753.966492
19 -435.092926 615.759399 -0.000954 -0.000022 0.000016 73.527184 753.966492
20 -435.092926 615.759399 -0.000954 -0.000022 0.000016 73.527184 753.966492
[L_Mouth01]
18 554.440979 7.658243 838.222046 150.204178 23.759130 109.605339 1005.027161
19 554.440979 7.658243 838.222046 150.204178 23.759130 109.605339 1005.027161
20 554.440979 7.658243 838.222046 150.204178 23.759130 109.605339 1005.027161
[L_mouthFront]
18 551.629089 934.514771 339.150421 0.000081 2.804060 79.119301 1136.941284
19 551.629089 934.514771 339.150421 0.000081 2.804060 79.119301 1136.941284
20 551.629089 934.514771 339.150421 0.000081 2.804060 79.119301 1136.941284
[mouthGun]
18 55.332661 1627.420898 0.000000 0.000023 0.000009 -11.038128 1628.361328
19 55.332661 1627.420898 0.000000 0.000023 0.000009 -11.038128 1628.361328
20 55.332661 1627.420898 0.000000 0.000023 0.000009 -11.038128 1628.361328
[R_Mouth01]
18 554.442383 7.659197 -838.223938 29.795891 -23.759109 109.605331 1005.029541
19 554.442383 7.659197 -838.223938 29.795891 -23.759109 109.605331 1005.029541
20 554.442383 7.659197 -838.223938 29.795891 -23.759109 109.605331 1005.029541
[R_mouthFront]
18 551.629089 934.514282 -339.151367 0.000029 -2.803930 79.119133 1136.941162
19 551.629089 934.514282 -339.151367 0.000029 -2.803930 79.119133 1136.941162
20 551.629089 934.514282 -339.151367 0.000029 -2.803930 79.119133 1136.941162
[TopMouth]
18 461.269867 -56.106091 -0.008583 -0.000059 -0.000268 92.025169 464.669525
19 461.269867 -56.106091 -0.008583 -0.000059 -0.000268 92.025169 464.669525
20 461.269867 -56.106091 -0.008583 -0.000059 -0.000268 92.025169 464.669525
[weapon_bone]
18 -987.239868 1448.372803 0.001431 0.000000 89.965736 -31.038221 1752.833740
19 -987.239868 1448.372803 0.001431 0.000000 89.965736 -31.038221 1752.833740
20 -987.239868 1448.372803 0.001431 0.000000 89.965736 -31.038221 1752.833740
